<svg width="180" height="180" viewBox="0 0 180 180" fill="none" xmlns="http://www.w3.org/2000/svg">
<rect width="180" height="180" rx="6" fill="#E0E0E0"/>
<path d="M58.386 82.626H67.098V83.868H58.386V82.626ZM58.116 90.69L57.936 89.448C58.884 89.436 59.922 89.424 61.05 89.412C62.19 89.388 63.342 89.346 64.506 89.286C65.67 89.226 66.786 89.13 67.854 88.998L67.962 90.114C66.882 90.282 65.76 90.408 64.596 90.492C63.432 90.576 62.292 90.63 61.176 90.654C60.072 90.678 59.052 90.69 58.116 90.69ZM60.006 83.562H61.446V89.7H60.006V83.562ZM64.038 83.562H65.478V89.7H64.038V83.562ZM69.042 81.132H70.536V93.12H69.042V81.132ZM70.068 86.064H72.93V87.324H70.068V86.064ZM60.402 95.82H71.256V97.044H60.402V95.82ZM60.402 91.986H61.878V96.144H60.402V91.986ZM86.8606 81.114H88.3006V97.404H86.8606V81.114ZM84.2686 87.558H87.4006V88.8H84.2686V87.558ZM83.2426 81.456H84.6646V96.576H83.2426V81.456ZM75.0346 83.004H81.2446V93.03H75.0346V83.004ZM79.8406 84.192H76.4386V91.842H79.8406V84.192ZM95.2292 87.882H96.7232V90.348H95.2292V87.882ZM95.9312 81.87C96.7112 81.87 97.4012 82.008 98.0012 82.284C98.6132 82.548 99.0872 82.92 99.4232 83.4C99.7712 83.88 99.9452 84.438 99.9452 85.074C99.9452 85.71 99.7712 86.274 99.4232 86.766C99.0872 87.246 98.6132 87.624 98.0012 87.9C97.4012 88.164 96.7112 88.296 95.9312 88.296C95.1512 88.296 94.4552 88.164 93.8432 87.9C93.2432 87.624 92.7692 87.246 92.4212 86.766C92.0852 86.274 91.9172 85.71 91.9172 85.074C91.9172 84.438 92.0852 83.88 92.4212 83.4C92.7692 82.92 93.2432 82.548 93.8432 82.284C94.4552 82.008 95.1512 81.87 95.9312 81.87ZM95.9312 83.022C95.4272 83.022 94.9772 83.106 94.5812 83.274C94.1852 83.442 93.8732 83.682 93.6452 83.994C93.4292 84.306 93.3212 84.666 93.3212 85.074C93.3212 85.482 93.4292 85.842 93.6452 86.154C93.8732 86.466 94.1852 86.712 94.5812 86.892C94.9772 87.06 95.4272 87.144 95.9312 87.144C96.4472 87.144 96.8972 87.06 97.2812 86.892C97.6772 86.712 97.9832 86.466 98.1992 86.154C98.4272 85.842 98.5412 85.482 98.5412 85.074C98.5412 84.666 98.4272 84.306 98.1992 83.994C97.9832 83.682 97.6772 83.442 97.2812 83.274C96.8972 83.106 96.4472 83.022 95.9312 83.022ZM102.141 81.132H103.635V93.588H102.141V81.132ZM103.005 86.622H106.011V87.882H103.005V86.622ZM93.3392 95.802H104.211V97.026H93.3392V95.802ZM93.3392 92.526H94.8332V96.342H93.3392V92.526ZM91.1792 91.176L90.9992 89.934C91.9472 89.934 92.9912 89.928 94.1312 89.916C95.2832 89.892 96.4592 89.844 97.6592 89.772C98.8592 89.688 100.011 89.562 101.115 89.394L101.223 90.492C100.095 90.696 98.9312 90.846 97.7312 90.942C96.5432 91.038 95.3852 91.104 94.2572 91.14C93.1412 91.164 92.1152 91.176 91.1792 91.176ZM111.698 90.654H113.156V94.65H111.698V90.654ZM116.9 90.636H118.358V94.632H116.9V90.636ZM107.576 94.146H122.336V95.388H107.576V94.146ZM109.376 82.32H120.5V87.252H110.888V90.51H109.412V86.046H119.024V83.544H109.376V82.32ZM109.412 89.862H120.878V91.086H109.412V89.862Z" fill="black"/>
</svg>
