<svg width="29" height="19" viewBox="0 0 29 19" fill="none" xmlns="http://www.w3.org/2000/svg">
<path d="M12.6186 18.134L0.623635 4.21095C-0.79195 2.57279 0.358525 9.3389e-07 2.50691 9.3389e-07H26.4968C26.9776 -0.00041769 27.4484 0.139911 27.8527 0.404182C28.257 0.668454 28.5777 1.04546 28.7764 1.49007C28.9751 1.93467 29.0434 2.42802 28.9731 2.91103C28.9029 3.39404 28.697 3.84625 28.3801 4.21349L16.3851 18.1314C16.1504 18.4042 15.8609 18.6229 15.5361 18.7727C15.2112 18.9225 14.8586 19 14.5019 19C14.1451 19 13.7925 18.9225 13.4677 18.7727C13.1428 18.6229 12.8533 18.4042 12.6186 18.1314V18.134Z" fill="#333333"/>
</svg>
