<svg width="100" height="100" viewBox="0 0 100 100" fill="none" xmlns="http://www.w3.org/2000/svg">
<g clip-path="url(#clip0_55_156)">
<path d="M65.625 53.125C65.625 57.269 63.9788 61.2433 61.0485 64.1735C58.1183 67.1038 54.144 68.75 50 68.75C45.856 68.75 41.8817 67.1038 38.9515 64.1735C36.0212 61.2433 34.375 57.269 34.375 53.125C34.375 48.981 36.0212 45.0067 38.9515 42.0765C41.8817 39.1462 45.856 37.5 50 37.5C54.144 37.5 58.1183 39.1462 61.0485 42.0765C63.9788 45.0067 65.625 48.981 65.625 53.125Z" fill="#A8A8A8"/>
<path d="M12.5 25C9.18479 25 6.00537 26.317 3.66117 28.6612C1.31696 31.0054 0 34.1848 0 37.5L0 75C0 78.3152 1.31696 81.4946 3.66117 83.8388C6.00537 86.183 9.18479 87.5 12.5 87.5H87.5C90.8152 87.5 93.9946 86.183 96.3388 83.8388C98.683 81.4946 100 78.3152 100 75V37.5C100 34.1848 98.683 31.0054 96.3388 28.6612C93.9946 26.317 90.8152 25 87.5 25H80.175C76.8601 24.9993 73.6812 23.6819 71.3375 21.3375L66.1625 16.1625C63.8188 13.8181 60.6399 12.5007 57.325 12.5H42.675C39.3601 12.5007 36.1812 13.8181 33.8375 16.1625L28.6625 21.3375C26.3188 23.6819 23.1399 24.9993 19.825 25H12.5ZM15.625 37.5C14.7962 37.5 14.0013 37.1708 13.4153 36.5847C12.8292 35.9987 12.5 35.2038 12.5 34.375C12.5 33.5462 12.8292 32.7513 13.4153 32.1653C14.0013 31.5792 14.7962 31.25 15.625 31.25C16.4538 31.25 17.2487 31.5792 17.8347 32.1653C18.4208 32.7513 18.75 33.5462 18.75 34.375C18.75 35.2038 18.4208 35.9987 17.8347 36.5847C17.2487 37.1708 16.4538 37.5 15.625 37.5ZM71.875 53.125C71.875 58.9266 69.5703 64.4906 65.468 68.593C61.3656 72.6953 55.8016 75 50 75C44.1984 75 38.6344 72.6953 34.532 68.593C30.4297 64.4906 28.125 58.9266 28.125 53.125C28.125 47.3234 30.4297 41.7594 34.532 37.657C38.6344 33.5547 44.1984 31.25 50 31.25C55.8016 31.25 61.3656 33.5547 65.468 37.657C69.5703 41.7594 71.875 47.3234 71.875 53.125Z" fill="#A8A8A8"/>
</g>
<defs>
<clipPath id="clip0_55_156">
<rect width="100" height="100" fill="white"/>
</clipPath>
</defs>
</svg>
