<svg width="30" height="23" viewBox="0 0 30 23" fill="none" xmlns="http://www.w3.org/2000/svg">
<path d="M28.125 19.1667C28.125 19.675 27.9275 20.1625 27.5758 20.522C27.2242 20.8814 26.7473 21.0833 26.25 21.0833H3.75C3.25272 21.0833 2.77581 20.8814 2.42417 20.522C2.07254 20.1625 1.875 19.675 1.875 19.1667V7.66667C1.875 7.15834 2.07254 6.67082 2.42417 6.31138C2.77581 5.95193 3.25272 5.75 3.75 5.75H5.9475C7.43857 5.74917 8.86831 5.14319 9.9225 4.06525L11.4788 2.47825C11.8294 2.11972 12.3047 1.91779 12.8006 1.91667H17.1956C17.6929 1.91678 18.1697 2.11878 18.5213 2.47825L20.0738 4.06525C20.5962 4.59945 21.2165 5.0232 21.8992 5.31227C22.5818 5.60135 23.3136 5.75009 24.0525 5.75H26.25C26.7473 5.75 27.2242 5.95193 27.5758 6.31138C27.9275 6.67082 28.125 7.15834 28.125 7.66667V19.1667ZM3.75 3.83333C2.75544 3.83333 1.80161 4.2372 1.09835 4.95609C0.395088 5.67498 0 6.65 0 7.66667V19.1667C0 20.1833 0.395088 21.1584 1.09835 21.8772C1.80161 22.5961 2.75544 23 3.75 23H26.25C27.2446 23 28.1984 22.5961 28.9016 21.8772C29.6049 21.1584 30 20.1833 30 19.1667V7.66667C30 6.65 29.6049 5.67498 28.9016 4.95609C28.1984 4.2372 27.2446 3.83333 26.25 3.83333H24.0525C23.058 3.83312 22.1043 3.42911 21.4012 2.71017L19.8488 1.12317C19.1457 0.404227 18.192 0.00021711 17.1975 0H12.8025C11.808 0.00021711 10.8543 0.404227 10.1513 1.12317L8.59875 2.71017C7.89565 3.42911 6.94198 3.83312 5.9475 3.83333H3.75Z" fill="#FB4A67"/>
<path d="M15 17.25C13.7568 17.25 12.5645 16.7452 11.6854 15.8466C10.8064 14.9479 10.3125 13.7292 10.3125 12.4583C10.3125 11.1875 10.8064 9.96873 11.6854 9.07011C12.5645 8.1715 13.7568 7.66667 15 7.66667C16.2432 7.66667 17.4355 8.1715 18.3146 9.07011C19.1936 9.96873 19.6875 11.1875 19.6875 12.4583C19.6875 13.7292 19.1936 14.9479 18.3146 15.8466C17.4355 16.7452 16.2432 17.25 15 17.25ZM15 19.1667C16.7405 19.1667 18.4097 18.4599 19.6404 17.2018C20.8711 15.9438 21.5625 14.2375 21.5625 12.4583C21.5625 10.6792 20.8711 8.97288 19.6404 7.71483C18.4097 6.45677 16.7405 5.75 15 5.75C13.2595 5.75 11.5903 6.45677 10.3596 7.71483C9.1289 8.97288 8.4375 10.6792 8.4375 12.4583C8.4375 14.2375 9.1289 15.9438 10.3596 17.2018C11.5903 18.4599 13.2595 19.1667 15 19.1667ZM5.625 8.625C5.625 8.87917 5.52623 9.12292 5.35041 9.30264C5.1746 9.48237 4.93614 9.58333 4.6875 9.58333C4.43886 9.58333 4.2004 9.48237 4.02459 9.30264C3.84877 9.12292 3.75 8.87917 3.75 8.625C3.75 8.37083 3.84877 8.12708 4.02459 7.94736C4.2004 7.76763 4.43886 7.66667 4.6875 7.66667C4.93614 7.66667 5.1746 7.76763 5.35041 7.94736C5.52623 8.12708 5.625 8.37083 5.625 8.625Z" fill="#FB4A67"/>
</svg>
