<svg width="78" height="78" viewBox="0 0 78 78" fill="none" xmlns="http://www.w3.org/2000/svg">
<circle cx="39" cy="39" r="38" fill="#F1F1F1" fill-opacity="0.57" stroke="#747474" stroke-width="2"/>
<path d="M51.553 28.2996H51.5528C49.9086 28.2993 48.3319 27.6459 47.1695 26.4831C47.1695 26.4831 47.1694 26.483 47.1694 26.483L45.0167 24.3303L45.0166 24.3302C44.2292 23.5426 43.1611 23.0999 42.0474 23.0996L51.553 28.2996ZM51.553 28.2996H54.6002C55.7141 28.2996 56.7824 28.7421 57.57 29.5298C58.3577 30.3174 58.8002 31.3857 58.8002 32.4996V48.0996C58.8002 49.2135 58.3577 50.2818 57.57 51.0695C56.7824 51.8571 55.7141 52.2996 54.6002 52.2996H23.4002C22.2863 52.2996 21.218 51.8571 20.4303 51.0695C19.6427 50.2818 19.2002 49.2135 19.2002 48.0996V32.4996C19.2002 31.3857 19.6427 30.3174 20.4303 29.5298C21.218 28.7421 22.2863 28.2996 23.4002 28.2996H26.4474H26.4476C28.0918 28.2993 29.6685 27.6459 30.8309 26.4831C30.8309 26.4831 30.831 26.483 30.831 26.483L32.9837 24.3303L32.9838 24.3302M51.553 28.2996L32.9838 24.3302M32.9838 24.3302C33.7712 23.5426 34.8393 23.0999 35.953 23.0996C35.9531 23.0996 35.9531 23.0996 35.9532 23.0996M32.9838 24.3302L35.9532 23.0996M35.9532 23.0996H42.0472H35.9532ZM31.2531 26.9062L31.2522 26.9072C29.9778 28.182 28.2494 28.8986 26.4468 28.8996H23.4002C22.4454 28.8996 21.5297 29.2789 20.8546 29.954C20.1795 30.6292 19.8002 31.5448 19.8002 32.4996V48.0996C19.8002 49.0544 20.1795 49.9701 20.8546 50.6452C21.5297 51.3203 22.4454 51.6996 23.4002 51.6996H54.6002C55.555 51.6996 56.4706 51.3203 57.1458 50.6452C57.8209 49.9701 58.2002 49.0544 58.2002 48.0996V32.4996C58.2002 31.5448 57.8209 30.6292 57.1458 29.954C56.4706 29.2789 55.555 28.8996 54.6002 28.8996H51.553H51.5529C50.6596 28.8997 49.775 28.7238 48.9497 28.382C48.1244 28.0401 47.3746 27.539 46.743 26.9072L46.7429 26.9071L44.5902 24.7544C44.5902 24.7544 44.5901 24.7543 44.5901 24.7543C43.9151 24.0792 42.9997 23.6998 42.045 23.6996H42.0448L35.9504 23.6996L35.9482 23.6996C34.9962 23.7017 34.0838 24.0808 33.4106 24.754C33.4105 24.7541 33.4103 24.7543 33.4102 24.7544L31.2531 26.9062ZM33.6969 44.3029C35.1034 45.7094 37.0111 46.4996 39.0002 46.4996C40.9893 46.4996 42.897 45.7094 44.3035 44.3029C45.71 42.8964 46.5002 40.9887 46.5002 38.9996C46.5002 37.0105 45.71 35.1028 44.3035 33.6963C42.897 32.2898 40.9893 31.4996 39.0002 31.4996C37.0111 31.4996 35.1034 32.2898 33.6969 33.6963C32.2904 35.1028 31.5002 37.0105 31.5002 38.9996C31.5002 40.9887 32.2904 42.8964 33.6969 44.3029ZM44.7278 44.7272C43.2087 46.2462 41.1484 47.0996 39.0002 47.0996C36.8519 47.0996 34.7917 46.2462 33.2726 44.7272C31.7536 43.2081 30.9002 41.1479 30.9002 38.9996C30.9002 36.8514 31.7536 34.7911 33.2726 33.272C34.7917 31.753 36.8519 30.8996 39.0002 30.8996C41.1484 30.8996 43.2087 31.753 44.7278 33.272C46.2468 34.7911 47.1002 36.8514 47.1002 38.9996C47.1002 41.1479 46.2468 43.2081 44.7278 44.7272ZM25.0002 33.7996C25.0002 33.8792 24.9686 33.9555 24.9123 34.0117C24.8561 34.068 24.7798 34.0996 24.7002 34.0996C24.6206 34.0996 24.5443 34.068 24.4881 34.0117C24.4318 33.9555 24.4002 33.8792 24.4002 33.7996C24.4002 33.72 24.4318 33.6437 24.4881 33.5875C24.5443 33.5312 24.6206 33.4996 24.7002 33.4996C24.7798 33.4996 24.8561 33.5312 24.9123 33.5875C24.9686 33.6437 25.0002 33.72 25.0002 33.7996Z" fill="#747474" stroke="#747474" stroke-width="2"/>
</svg>
