<svg width="36" height="36" viewBox="0 0 36 36" fill="none" xmlns="http://www.w3.org/2000/svg">
<path d="M18 36C27.9411 36 36 27.9411 36 18C36 8.05887 27.9411 0 18 0C8.05887 0 0 8.05887 0 18C0 27.9411 8.05887 36 18 36Z" fill="#FB4A67"/>
<path fill-rule="evenodd" clip-rule="evenodd" d="M6.25986 13.2727C6.34202 13.1863 6.43963 13.1177 6.54709 13.0709C6.65455 13.0241 6.76975 13 6.88609 13C7.00244 13 7.11764 13.0241 7.2251 13.0709C7.33256 13.1177 7.43016 13.1863 7.51233 13.2727L17.5002 23.7573L27.4881 13.2727C27.5704 13.1864 27.668 13.118 27.7755 13.0712C27.8829 13.0245 27.9981 13.0005 28.1144 13.0005C28.2307 13.0005 28.3458 13.0245 28.4533 13.0712C28.5607 13.118 28.6584 13.1864 28.7406 13.2727C28.8228 13.359 28.8881 13.4615 28.9326 13.5743C28.9771 13.6871 29 13.8079 29 13.93C29 14.0521 28.9771 14.1729 28.9326 14.2857C28.8881 14.3985 28.8228 14.5009 28.7406 14.5873L18.1265 25.7273C18.0443 25.8137 17.9467 25.8823 17.8392 25.9291C17.7318 25.9759 17.6166 26 17.5002 26C17.3839 26 17.2687 25.9759 17.1612 25.9291C17.0538 25.8823 16.9562 25.8137 16.874 25.7273L6.25986 14.5873C6.17749 14.501 6.11213 14.3986 6.06754 14.2858C6.02295 14.173 6 14.0521 6 13.93C6 13.8079 6.02295 13.687 6.06754 13.5742C6.11213 13.4614 6.17749 13.359 6.25986 13.2727Z" fill="white"/>
</svg>
