<svg width="234" height="234" viewBox="0 0 234 234" fill="none" xmlns="http://www.w3.org/2000/svg">
<g clip-path="url(#clip0_158_220)">
<path d="M234 117C234 148.03 221.673 177.79 199.732 199.732C177.79 221.673 148.03 234 117 234C85.9697 234 56.2103 221.673 34.2685 199.732C12.3268 177.79 0 148.03 0 117C0 85.9697 12.3268 56.2103 34.2685 34.2685C56.2103 12.3268 85.9697 0 117 0C148.03 0 177.79 12.3268 199.732 34.2685C221.673 56.2103 234 85.9697 234 117ZM175.939 72.6862C174.894 71.6452 173.65 70.8256 172.281 70.2763C170.913 69.727 169.447 69.4594 167.973 69.4894C166.498 69.5194 165.045 69.8465 163.7 70.4511C162.355 71.0557 161.145 71.9253 160.144 73.008L109.351 137.724L78.741 107.099C76.6617 105.161 73.9115 104.107 71.0699 104.157C68.2282 104.207 65.5169 105.358 63.5073 107.368C61.4976 109.377 60.3465 112.089 60.2963 114.93C60.2462 117.772 61.301 120.522 63.2385 122.601L101.936 161.314C102.979 162.354 104.22 163.174 105.586 163.725C106.953 164.275 108.416 164.545 109.889 164.517C111.361 164.49 112.813 164.167 114.158 163.566C115.503 162.965 116.713 162.1 117.717 161.021L176.1 88.0425C178.09 85.973 179.19 83.2057 179.162 80.3345C179.135 77.4634 177.983 74.7174 175.953 72.6862H175.939Z" fill="#FB4A67"/>
</g>
<defs>
<clipPath id="clip0_158_220">
<rect width="234" height="234" fill="white"/>
</clipPath>
</defs>
</svg>
