<svg width="27" height="14" viewBox="0 0 27 14" fill="none" xmlns="http://www.w3.org/2000/svg">
<path d="M0.651392 0.654334L0.651393 0.654335L0.652302 0.653458C0.701494 0.605974 0.760953 0.56734 0.827742 0.540656C0.894555 0.513962 0.966806 0.5 1.0402 0.5C1.11359 0.5 1.18584 0.513962 1.25265 0.540656C1.31944 0.56734 1.3789 0.605974 1.42809 0.653458L1.42851 0.653865L13.1534 11.945L13.5003 12.279L13.8471 11.945L25.572 0.653896C25.572 0.653886 25.572 0.653876 25.572 0.653865C25.6213 0.60641 25.6809 0.567808 25.7477 0.541148C25.8146 0.514472 25.8869 0.500523 25.9603 0.500523C26.0338 0.500523 26.1061 0.514473 26.173 0.541148C26.2398 0.567814 26.2994 0.606426 26.3487 0.653896C26.398 0.701329 26.436 0.756606 26.4616 0.816055C26.4871 0.875455 26.5 0.938421 26.5 1.00153C26.5 1.06464 26.4871 1.12761 26.4616 1.18701C26.436 1.24646 26.398 1.30173 26.3487 1.34917L13.8886 13.3461L13.8882 13.3465C13.839 13.394 13.7795 13.4327 13.7127 13.4593C13.6459 13.486 13.5737 13.5 13.5003 13.5C13.4269 13.5 13.3546 13.486 13.2878 13.4593C13.221 13.4327 13.1616 13.394 13.1124 13.3465L13.1119 13.3461L0.651848 1.34917L0.651392 1.34873C0.602102 1.30139 0.564054 1.24619 0.538463 1.18681C0.512892 1.12748 0.5 1.06457 0.5 1.00153C0.5 0.938488 0.512892 0.875586 0.538463 0.816253C0.564054 0.756872 0.602102 0.701672 0.651392 0.654334ZM1.43816 0.0763422C1.56431 0.126742 1.67889 0.200609 1.77534 0.293712L0.305051 1.70935C0.208355 1.61648 0.131636 1.50616 0.0792903 1.3847C0.0269446 1.26324 0 1.13303 0 1.00153C0 0.87003 0.0269446 0.739821 0.0792903 0.618362C0.131636 0.496903 0.208355 0.38658 0.305051 0.293712C0.401504 0.200609 0.516086 0.126742 0.642234 0.0763422C0.768383 0.0259421 0.903618 0 1.0402 0C1.17677 0 1.31201 0.0259421 1.43816 0.0763422Z" fill="#6E6E6E" stroke="#6E6E6E"/>
</svg>
