<svg width="30" height="30" viewBox="0 0 30 30" fill="none" xmlns="http://www.w3.org/2000/svg">
<path d="M15 28.125C11.519 28.125 8.18064 26.7422 5.71922 24.2808C3.25781 21.8194 1.875 18.481 1.875 15C1.875 11.519 3.25781 8.18064 5.71922 5.71922C8.18064 3.25781 11.519 1.875 15 1.875C18.481 1.875 21.8194 3.25781 24.2808 5.71922C26.7422 8.18064 28.125 11.519 28.125 15C28.125 18.481 26.7422 21.8194 24.2808 24.2808C21.8194 26.7422 18.481 28.125 15 28.125ZM15 30C18.9782 30 22.7936 28.4196 25.6066 25.6066C28.4196 22.7936 30 18.9782 30 15C30 11.0218 28.4196 7.20644 25.6066 4.3934C22.7936 1.58035 18.9782 0 15 0C11.0218 0 7.20644 1.58035 4.3934 4.3934C1.58035 7.20644 0 11.0218 0 15C0 18.9782 1.58035 22.7936 4.3934 25.6066C7.20644 28.4196 11.0218 30 15 30Z" fill="#FB4A67"/>
<path d="M8.03437 17.9381C8.2497 17.8138 8.50559 17.7801 8.74575 17.8445C8.98591 17.9088 9.19068 18.0659 9.315 18.2813C9.89112 19.2791 10.7198 20.1077 11.7178 20.6837C12.7157 21.2597 13.8478 21.5628 15 21.5625C16.1522 21.5628 17.2843 21.2597 18.2822 20.6837C19.2802 20.1077 20.1089 19.2791 20.685 18.2813C20.7461 18.1738 20.8279 18.0794 20.9256 18.0037C21.0233 17.9279 21.135 17.8723 21.2544 17.8399C21.3737 17.8075 21.4982 17.799 21.6208 17.8149C21.7434 17.8309 21.8617 17.8709 21.9687 17.9327C22.0758 17.9945 22.1696 18.0769 22.2447 18.1751C22.3198 18.2734 22.3747 18.3855 22.4063 18.505C22.4379 18.6245 22.4456 18.7491 22.4288 18.8716C22.4121 18.9941 22.3713 19.1121 22.3087 19.2188C21.5681 20.5017 20.5027 21.5669 19.2197 22.3075C17.9367 23.0481 16.4814 23.4378 15 23.4375C13.5186 23.4378 12.0633 23.0481 10.7803 22.3075C9.49733 21.5669 8.43194 20.5017 7.69125 19.2188C7.56694 19.0034 7.53325 18.7475 7.59759 18.5074C7.66194 18.2672 7.81906 18.0625 8.03437 17.9381ZM13.125 12.1875C13.125 13.74 12.285 15 11.25 15C10.215 15 9.375 13.74 9.375 12.1875C9.375 10.635 10.215 9.375 11.25 9.375C12.285 9.375 13.125 10.635 13.125 12.1875ZM20.625 12.1875C20.625 13.74 19.785 15 18.75 15C17.715 15 16.875 13.74 16.875 12.1875C16.875 10.635 17.715 9.375 18.75 9.375C19.785 9.375 20.625 10.635 20.625 12.1875Z" fill="#FB4A67"/>
</svg>
