<svg width="116" height="94" viewBox="0 0 116 94" fill="none" xmlns="http://www.w3.org/2000/svg">
<rect width="116" height="94" fill="white"/>
<path d="M70.144 65.712C73.6463 65.712 76.3229 62.6833 76.3229 59.1563V39.4891H39.6215V59.1563C39.6215 62.6833 42.2981 65.712 45.8005 65.712H70.144ZM51.4184 44.7337H64.526C64.8737 44.7337 65.2071 44.8719 65.4529 45.1177C65.6987 45.3636 65.8368 45.6971 65.8368 46.0449C65.8368 46.3926 65.6987 46.7261 65.4529 46.972C65.2071 47.2179 64.8737 47.356 64.526 47.356H51.4184C51.0708 47.356 50.7374 47.2179 50.4916 46.972C50.2457 46.7261 50.1076 46.3926 50.1076 46.0449C50.1076 45.6971 50.2457 45.3636 50.4916 45.1177C50.7374 44.8719 51.0708 44.7337 51.4184 44.7337ZM39.0972 29C38.541 29 38.0076 29.221 37.6143 29.6144C37.221 30.0079 37 30.5414 37 31.0978V34.2446C37 34.801 37.221 35.3345 37.6143 35.728C38.0076 36.1214 38.541 36.3424 39.0972 36.3424H76.8472C77.4034 36.3424 77.9369 36.1214 78.3302 35.728C78.7235 35.3345 78.9444 34.801 78.9444 34.2446V31.0978C78.9444 30.5414 78.7235 30.0079 78.3302 29.6144C77.9369 29.221 77.4034 29 76.8472 29H39.0972Z" fill="#FB4A67"/>
</svg>
