<svg width="116" height="94" viewBox="0 0 116 94" fill="none" xmlns="http://www.w3.org/2000/svg">
<rect width="116" height="94" fill="white"/>
<path d="M58.5 58C58.5 58 67 49.8264 67 43.625C67 41.3375 66.1045 39.1437 64.5104 37.5262C62.9163 35.9087 60.7543 35 58.5 35C56.2457 35 54.0837 35.9087 52.4896 37.5262C50.8955 39.1437 50 41.3375 50 43.625C50 49.8264 58.5 58 58.5 58ZM58.5 47.9375C57.3728 47.9375 56.2918 47.4831 55.4948 46.6744C54.6978 45.8656 54.25 44.7687 54.25 43.625C54.25 42.4813 54.6978 41.3844 55.4948 40.5756C56.2918 39.7669 57.3728 39.3125 58.5 39.3125C59.6272 39.3125 60.7082 39.7669 61.5052 40.5756C62.3022 41.3844 62.75 42.4813 62.75 43.625C62.75 44.7687 62.3022 45.8656 61.5052 46.6744C60.7082 47.4831 59.6272 47.9375 58.5 47.9375Z" fill="#FB4A67"/>
</svg>
