<svg width="573" height="353" viewBox="0 0 573 353" fill="none" xmlns="http://www.w3.org/2000/svg">
<rect width="573" height="353" fill="white"/>
<path d="M403 177C403 208.03 390.673 237.79 368.731 259.731C346.79 281.673 317.03 294 286 294C254.97 294 225.21 281.673 203.269 259.731C181.327 237.79 169 208.03 169 177C169 145.97 181.327 116.21 203.269 94.2685C225.21 72.3268 254.97 60 286 60C317.03 60 346.79 72.3268 368.731 94.2685C390.673 116.21 403 145.97 403 177ZM344.939 132.686C343.894 131.645 342.65 130.826 341.281 130.276C339.913 129.727 338.447 129.459 336.973 129.489C335.498 129.519 334.045 129.847 332.7 130.451C331.355 131.056 330.145 131.925 329.144 133.008L278.351 197.724L247.741 167.099C245.662 165.161 242.912 164.107 240.07 164.157C237.228 164.207 234.517 165.358 232.507 167.368C230.498 169.377 229.346 172.089 229.296 174.93C229.246 177.772 230.301 180.522 232.238 182.601L270.936 221.314C271.979 222.354 273.22 223.174 274.586 223.725C275.953 224.275 277.416 224.545 278.889 224.517C280.361 224.49 281.813 224.167 283.158 223.566C284.503 222.965 285.713 222.1 286.717 221.021L345.1 148.042C347.09 145.973 348.19 143.206 348.162 140.335C348.135 137.463 346.983 134.717 344.953 132.686H344.939Z" fill="#FB4A67"/>
</svg>
