<svg width="116" height="94" viewBox="0 0 116 94" fill="none" xmlns="http://www.w3.org/2000/svg">
<rect width="116" height="94" fill="white"/>
<path d="M58.5 34.75C57.5762 34.75 56.6903 35.1187 56.0371 35.7751C55.3839 36.4315 55.0169 37.3217 55.0169 38.25V41.75H53.2754V38.25C53.2754 36.8576 53.8258 35.5223 54.8056 34.5377C55.7854 33.5531 57.1143 33 58.5 33C59.8857 33 61.2146 33.5531 62.1944 34.5377C63.1742 35.5223 63.7246 36.8576 63.7246 38.25V41.75H61.9831V38.25C61.9831 37.3217 61.6161 36.4315 60.9629 35.7751C60.3097 35.1187 59.4238 34.75 58.5 34.75ZM53.2754 41.75H50.4192C49.7938 41.7501 49.1892 41.9758 48.7152 42.3858C48.2413 42.7959 47.9295 43.3633 47.8365 43.9847L46.0479 55.9775C45.9553 56.5998 45.9973 57.2348 46.1711 57.8393C46.3448 58.4438 46.6463 59.0035 47.055 59.4802C47.4636 59.9569 47.9698 60.3395 48.539 60.6018C49.1081 60.864 49.7269 60.9999 50.353 61H66.6452C67.2715 61.0001 67.8905 60.8645 68.4599 60.6023C69.0292 60.3401 69.5356 59.9576 69.9444 59.4809C70.3533 59.0041 70.6549 58.4443 70.8288 57.8397C71.0027 57.2351 71.0447 56.5999 70.9521 55.9775L69.1617 43.9847C69.0688 43.3636 68.7573 42.7965 68.2837 42.3864C67.8101 41.9764 67.2059 41.7506 66.5808 41.75H63.7246V44.375C63.7246 44.6071 63.6329 44.8296 63.4696 44.9937C63.3063 45.1578 63.0848 45.25 62.8539 45.25C62.6229 45.25 62.4014 45.1578 62.2381 44.9937C62.0748 44.8296 61.9831 44.6071 61.9831 44.375V41.75H55.0169V44.375C55.0169 44.6071 54.9252 44.8296 54.7619 44.9937C54.5986 45.1578 54.3771 45.25 54.1461 45.25C53.9152 45.25 53.6937 45.1578 53.5304 44.9937C53.3671 44.8296 53.2754 44.6071 53.2754 44.375V41.75Z" fill="#FB4A67"/>
</svg>
