<svg width="116" height="94" viewBox="0 0 116 94" fill="none" xmlns="http://www.w3.org/2000/svg">
<rect width="116" height="94" fill="white"/>
<g clip-path="url(#clip0_201_30)">
<path d="M72 46.5C72 50.0804 70.5777 53.5142 68.0459 56.0459C65.5142 58.5777 62.0804 60 58.5 60C54.9196 60 51.4858 58.5777 48.9541 56.0459C46.4223 53.5142 45 50.0804 45 46.5C45 42.9196 46.4223 39.4858 48.9541 36.9541C51.4858 34.4223 54.9196 33 58.5 33C62.0804 33 65.5142 34.4223 68.0459 36.9541C70.5777 39.4858 72 42.9196 72 46.5ZM65.3006 41.3869C65.1801 41.2668 65.0366 41.1722 64.8786 41.1088C64.7207 41.0454 64.5516 41.0145 64.3815 41.018C64.2113 41.0215 64.0437 41.0592 63.8884 41.129C63.7332 41.1987 63.5937 41.2991 63.4781 41.424L57.6174 48.8912L54.0855 45.3576C53.8456 45.134 53.5283 45.0123 53.2004 45.0181C52.8725 45.0239 52.5596 45.1567 52.3278 45.3886C52.0959 45.6205 51.9631 45.9333 51.9573 46.2612C51.9515 46.5891 52.0732 46.9064 52.2967 47.1463L56.7619 51.6131C56.8822 51.7332 57.0254 51.8278 57.183 51.8913C57.3407 51.9548 57.5095 51.9859 57.6794 51.9828C57.8494 51.9796 58.0169 51.9423 58.1721 51.873C58.3273 51.8037 58.4669 51.7038 58.5827 51.5794L65.3192 43.1587C65.5488 42.92 65.6757 42.6007 65.6726 42.2694C65.6694 41.9381 65.5365 41.6212 65.3023 41.3869H65.3006Z" fill="#747474"/>
</g>
<defs>
<clipPath id="clip0_201_30">
<rect width="27" height="27" fill="white" transform="translate(45 33)"/>
</clipPath>
</defs>
</svg>
