<svg width="17" height="23" viewBox="0 0 17 23" fill="none" xmlns="http://www.w3.org/2000/svg">
<path d="M8.5 23C8.5 23 17 14.8264 17 8.625C17 6.33751 16.1045 4.14371 14.5104 2.5262C12.9163 0.908703 10.7543 0 8.5 0C6.24566 0 4.08365 0.908703 2.48959 2.5262C0.895533 4.14371 3.35923e-08 6.33751 0 8.625C0 14.8264 8.5 23 8.5 23ZM8.5 12.9375C7.37283 12.9375 6.29183 12.4831 5.4948 11.6744C4.69777 10.8656 4.25 9.76875 4.25 8.625C4.25 7.48125 4.69777 6.38435 5.4948 5.5756C6.29183 4.76685 7.37283 4.3125 8.5 4.3125C9.62717 4.3125 10.7082 4.76685 11.5052 5.5756C12.3022 6.38435 12.75 7.48125 12.75 8.625C12.75 9.76875 12.3022 10.8656 11.5052 11.6744C10.7082 12.4831 9.62717 12.9375 8.5 12.9375Z" fill="#FB4A67"/>
</svg>
