<svg width="42" height="37" viewBox="0 0 42 37" fill="none" xmlns="http://www.w3.org/2000/svg">
<path d="M33.144 36.7491C36.6463 36.7491 39.3229 33.7204 39.3229 30.1934V10.5263H2.62153V30.1934C2.62153 33.7204 5.29811 36.7491 8.80047 36.7491H33.144ZM14.4184 15.7708H27.526C27.8737 15.7708 28.2071 15.909 28.4529 16.1549C28.6987 16.4007 28.8368 16.7342 28.8368 17.082C28.8368 17.4297 28.6987 17.7632 28.4529 18.0091C28.2071 18.255 27.8737 18.3931 27.526 18.3931H14.4184C14.0708 18.3931 13.7374 18.255 13.4916 18.0091C13.2457 17.7632 13.1076 17.4297 13.1076 17.082C13.1076 16.7342 13.2457 16.4007 13.4916 16.1549C13.7374 15.909 14.0708 15.7708 14.4184 15.7708ZM2.09722 0.0371094C1.541 0.0371094 1.00757 0.25813 0.614262 0.651549C0.220957 1.04497 0 1.57856 0 2.13494L0 5.28168C0 5.83806 0.220957 6.37165 0.614262 6.76507C1.00757 7.15849 1.541 7.37951 2.09722 7.37951H39.8472C40.4034 7.37951 40.9369 7.15849 41.3302 6.76507C41.7235 6.37165 41.9444 5.83806 41.9444 5.28168V2.13494C41.9444 1.57856 41.7235 1.04497 41.3302 0.651549C40.9369 0.25813 40.4034 0.0371094 39.8472 0.0371094H2.09722Z" fill="#FB4A67"/>
</svg>
