<svg width="28" height="23" viewBox="0 0 28 23" fill="none" xmlns="http://www.w3.org/2000/svg">
<path fill-rule="evenodd" clip-rule="evenodd" d="M0 21.7222C0 21.3833 0.134091 21.0583 0.372773 20.8187C0.611456 20.5791 0.935179 20.4444 1.27273 20.4444H26.7273C27.0648 20.4444 27.3885 20.5791 27.6272 20.8187C27.8659 21.0583 28 21.3833 28 21.7222C28 22.0611 27.8659 22.3861 27.6272 22.6257C27.3885 22.8654 27.0648 23 26.7273 23H1.27273C0.935179 23 0.611456 22.8654 0.372773 22.6257C0.134091 22.3861 0 22.0611 0 21.7222ZM0 11.5C0 11.1611 0.134091 10.8361 0.372773 10.5965C0.611456 10.3568 0.935179 10.2222 1.27273 10.2222H26.7273C27.0648 10.2222 27.3885 10.3568 27.6272 10.5965C27.8659 10.8361 28 11.1611 28 11.5C28 11.8389 27.8659 12.1639 27.6272 12.4035C27.3885 12.6432 27.0648 12.7778 26.7273 12.7778H1.27273C0.935179 12.7778 0.611456 12.6432 0.372773 12.4035C0.134091 12.1639 0 11.8389 0 11.5ZM0 1.27778C0 0.93889 0.134091 0.613882 0.372773 0.374253C0.611456 0.134623 0.935179 0 1.27273 0H26.7273C27.0648 0 27.3885 0.134623 27.6272 0.374253C27.8659 0.613882 28 0.93889 28 1.27778C28 1.61667 27.8659 1.94167 27.6272 2.1813C27.3885 2.42093 27.0648 2.55556 26.7273 2.55556H1.27273C0.935179 2.55556 0.611456 2.42093 0.372773 2.1813C0.134091 1.94167 0 1.61667 0 1.27778Z" fill="black"/>
</svg>
