<svg width="23" height="20" viewBox="0 0 23 20" fill="none" xmlns="http://www.w3.org/2000/svg">
<path fill-rule="evenodd" clip-rule="evenodd" d="M0 10C0 9.62119 0.151434 9.25789 0.420987 8.99003C0.690541 8.72217 1.05613 8.57169 1.43734 8.57169H18.0904L11.9184 2.44137C11.6485 2.17317 11.4969 1.80941 11.4969 1.43012C11.4969 1.05083 11.6485 0.687071 11.9184 0.418872C12.1883 0.150673 12.5544 0 12.9361 0C13.3177 0 13.6838 0.150673 13.9537 0.418872L22.5777 8.98875C22.7116 9.12143 22.8178 9.27905 22.8902 9.45257C22.9627 9.6261 23 9.81213 23 10C23 10.1879 22.9627 10.3739 22.8902 10.5474C22.8178 10.721 22.7116 10.8786 22.5777 11.0112L13.9537 19.5811C13.6838 19.8493 13.3177 20 12.9361 20C12.5544 20 12.1883 19.8493 11.9184 19.5811C11.6485 19.3129 11.4969 18.9492 11.4969 18.5699C11.4969 18.1906 11.6485 17.8268 11.9184 17.5586L18.0904 11.4283H1.43734C1.05613 11.4283 0.690541 11.2778 0.420987 11.01C0.151434 10.7421 0 10.3788 0 10Z" fill="#FB4A67"/>
</svg>
