<svg width="25" height="28" viewBox="0 0 25 28" fill="none" xmlns="http://www.w3.org/2000/svg">
<path d="M12.5 1.75C11.5762 1.75 10.6903 2.11875 10.0371 2.77513C9.38388 3.4315 9.01691 4.32174 9.01691 5.25V8.75H7.27536V5.25C7.27536 3.85761 7.82581 2.52226 8.80562 1.53769C9.78543 0.553123 11.1143 0 12.5 0C13.8857 0 15.2146 0.553123 16.1944 1.53769C17.1742 2.52226 17.7246 3.85761 17.7246 5.25V8.75H15.9831V5.25C15.9831 4.32174 15.6161 3.4315 14.9629 2.77513C14.3097 2.11875 13.4238 1.75 12.5 1.75ZM7.27536 8.75H4.41923C3.79379 8.75014 3.18917 8.97575 2.71523 9.38584C2.24129 9.79592 1.9295 10.3633 1.83652 10.9847L0.0479478 22.9775C-0.0447237 23.5998 -0.00273197 24.2348 0.171058 24.8393C0.344849 25.4438 0.646348 26.0035 1.05499 26.4802C1.46363 26.9569 1.9698 27.3395 2.53896 27.6018C3.10812 27.864 3.72689 27.9999 4.35305 28H20.6452C21.2715 28.0001 21.8905 27.8645 22.4599 27.6023C23.0292 27.3401 23.5356 26.9576 23.9444 26.4809C24.3533 26.0041 24.6549 25.4443 24.8288 24.8397C25.0027 24.2351 25.0447 23.5999 24.9521 22.9775L23.1617 10.9847C23.0688 10.3636 22.7573 9.79646 22.2837 9.38641C21.8101 8.97636 21.2059 8.75056 20.5808 8.75H17.7246V11.375C17.7246 11.6071 17.6329 11.8296 17.4696 11.9937C17.3063 12.1578 17.0848 12.25 16.8539 12.25C16.6229 12.25 16.4014 12.1578 16.2381 11.9937C16.0748 11.8296 15.9831 11.6071 15.9831 11.375V8.75H9.01691V11.375C9.01691 11.6071 8.92517 11.8296 8.76186 11.9937C8.59856 12.1578 8.37708 12.25 8.14614 12.25C7.91519 12.25 7.69371 12.1578 7.53041 11.9937C7.3671 11.8296 7.27536 11.6071 7.27536 11.375V8.75Z" fill="#FB4A67"/>
</svg>
